<svg xmlns="http://www.w3.org/2000/svg" xmlns:xlink="http://www.w3.org/1999/xlink" width="48" zoomAndPan="magnify" viewBox="0 0 36 36.000001" height="48" preserveAspectRatio="xMidYMid meet" version="1.0"><defs><g/></defs><g fill="rgb(87.059021%, 38.42926%, 58.039856%)" fill-opacity="1"><g transform="translate(1.682055, 33.229599)"><g><path d="M 0.507812 -25.285156 L 0.507812 0 L 4.371094 0 L 4.390625 -24.988281 C 4.390625 -27.085938 6.128906 -27.832031 7.277344 -26.089844 L 15.082031 -14.019531 C 15.632812 -13.195312 16.035156 -13.300781 16.546875 -14.105469 L 24.332031 -26.089844 C 25.476562 -27.832031 27.195312 -27.085938 27.195312 -24.988281 L 27.195312 0 L 31.097656 0 L 31.074219 -25.285156 C 31.074219 -32.707031 23.585938 -32.75 21.382812 -28.996094 L 15.78125 -19.453125 L 10.203125 -28.996094 C 8.019531 -32.75 0.53125 -32.707031 0.507812 -25.285156 Z M 22.867188 0 L 26.726562 0 L 26.707031 -24.988281 C 26.707031 -26.832031 25.410156 -26.980469 24.667969 -25.816406 L 16.925781 -13.808594 C 16.25 -12.683594 15.378906 -12.683594 14.679688 -13.789062 L 6.9375 -25.816406 C 6.171875 -26.980469 4.859375 -26.832031 4.859375 -24.988281 L 4.859375 0 L 8.738281 0 L 8.335938 -16.609375 L 12.386719 -10.246094 C 14.277344 -7.253906 17.117188 -7.277344 19.132812 -10.160156 L 23.375 -17.183594 Z M 22.867188 0 "/></g></g></g></svg>